<?xml version="1.0" encoding="UTF-8"?>
<svg id="_レイヤー_2" data-name="レイヤー 2" xmlns="http://www.w3.org/2000/svg" viewBox="0 0 51.46 51.46">
  <defs>
    <style>
      .cls-1 {
        fill: #1f2b33;
      }

      .cls-1, .cls-2 {
        stroke-width: 0px;
      }

      .cls-2 {
        fill: #fff;
      }
    </style>
  </defs>
  <g id="Layer_1" data-name="Layer 1">
    <g>
      <polygon class="cls-1" points="0 0 51.46 51.46 51.46 0 0 0"/>
      <path class="cls-2" d="m42.59,9.79c-3.9-4.27-10.53-4.56-14.8-.66-3.62,3.31-4.37,8.58-2.14,12.71.07-.13.17-.27.32-.4l1.32-1.21-.89-.97c-.48-.53-.69-1.21-.47-1.82.24-.68.92-1.38.78-2.41-.02-.32.27-.33.45-.1.25.5.28,1.08.16,1.75-.12.68-.08.91.44,1.48.26.28.65.68,1.07,1.02.73-.28,1.56-.37,2.2-.13-2.09-2.82-1.93-5.22-.19-6.8.75-.68,1.76-1.03,2.87-1.04.44-.73,1.47-2.08,2.37-2.04,1.06,1.16.95,2.55.9,2.9.73.4,1.42.93,2.03,1.59s1.08,1.41,1.41,2.17c.35-.02,1.75,0,2.81,1.15-.04.9-1.49,1.81-2.25,2.18-.12,1.1-.55,2.07-1.3,2.76-1.74,1.59-4.14,1.53-6.75-.79.28,1.04-.29,2.51-1.07,3.22l-1.76,1.61c-.07.06-.13.09-.19.14,3.81,2.05,8.65,1.59,12.02-1.49,4.27-3.9,4.56-10.53.66-14.8Z"/>
    </g>
  </g>
</svg>