<?xml version="1.0" encoding="UTF-8"?>
<svg id="_レイヤー_2" data-name="レイヤー 2" xmlns="http://www.w3.org/2000/svg" viewBox="0 0 94.25 94.25">
  <defs>
    <style>
      .cls-1, .cls-2 {
        fill: #777fd9;
        stroke-width: 0px;
      }

      .cls-2 {
        opacity: .4;
      }
    </style>
  </defs>
  <g id="Layer_1" data-name="Layer 1">
    <g>
      <g>
        <g>
          <path class="cls-1" d="m36.15,38.68c-1.41-1.62-3.66-2.43-6.67-2.43h-9.6c-.23,0-.42.16-.46.38l-4.45,22.91c-.03.14,0,.28.1.39.09.11.22.17.36.17h4.99c.23,0,.42-.16.46-.38l1.11-5.71h3.89c1.93,0,3.54-.21,4.8-.62,1.28-.42,2.45-1.12,3.49-2.09.87-.8,1.58-1.69,2.12-2.66.54-.97.93-2.05,1.15-3.21.55-2.85.12-5.12-1.3-6.75Zm-4.78,6.22c-.32,1.65-.93,2.83-1.82,3.51-.9.69-2.31,1.04-4.21,1.04h-2.46l1.68-8.64h3.03c1.75,0,2.91.3,3.44.89.52.58.64,1.66.34,3.2Z"/>
          <path class="cls-1" d="m56.69,37.82c-1.15-1.06-3.14-1.58-6.06-1.58h-3.84l1.07-5.53c.03-.14,0-.28-.1-.39-.09-.11-.22-.17-.36-.17h-4.95c-.23,0-.42.16-.46.38l-4.45,22.91c-.03.14,0,.28.1.39.09.11.22.17.36.17h4.95c.23,0,.42-.16.46-.38l2.48-12.74h3.57c1.47,0,1.97.3,2.14.48.27.29.32.98.13,1.95l-1.97,10.13c-.03.14,0,.28.1.39.09.11.22.17.36.17h5.03c.23,0,.42-.16.46-.38l2.07-10.66c.45-2.33.09-4.06-1.09-5.14Z"/>
          <path class="cls-1" d="m77.76,38.68c-1.41-1.62-3.66-2.43-6.67-2.43h-9.59c-.23,0-.42.16-.46.38l-4.45,22.91c-.03.14,0,.28.1.39.09.11.22.17.36.17h4.99c.23,0,.42-.16.46-.38l1.11-5.71h3.89c1.93,0,3.54-.21,4.8-.62,1.28-.42,2.45-1.12,3.49-2.09.87-.8,1.58-1.69,2.12-2.66.54-.97.93-2.05,1.15-3.21.55-2.85.12-5.12-1.3-6.75Zm-4.78,6.22c-.32,1.65-.93,2.83-1.82,3.51-.9.69-2.31,1.04-4.21,1.04h-2.46l1.68-8.64h3.03c1.75,0,2.91.3,3.44.89.52.58.64,1.66.34,3.2Z"/>
        </g>
        <g>
          <path class="cls-1" d="m36.15,38.68c-1.41-1.62-3.66-2.43-6.67-2.43h-9.6c-.23,0-.42.16-.46.38l-4.45,22.91c-.03.14,0,.28.1.39.09.11.22.17.36.17h4.99c.23,0,.42-.16.46-.38l1.11-5.71h3.89c1.93,0,3.54-.21,4.8-.62,1.28-.42,2.45-1.12,3.49-2.09.87-.8,1.58-1.69,2.12-2.66.54-.97.93-2.05,1.15-3.21.55-2.85.12-5.12-1.3-6.75Zm-4.78,6.22c-.32,1.65-.93,2.83-1.82,3.51-.9.69-2.31,1.04-4.21,1.04h-2.46l1.68-8.64h3.03c1.75,0,2.91.3,3.44.89.52.58.64,1.66.34,3.2Z"/>
          <path class="cls-1" d="m56.69,37.82c-1.15-1.06-3.14-1.58-6.06-1.58h-3.84l1.07-5.53c.03-.14,0-.28-.1-.39-.09-.11-.22-.17-.36-.17h-4.95c-.23,0-.42.16-.46.38l-4.45,22.91c-.03.14,0,.28.1.39.09.11.22.17.36.17h4.95c.23,0,.42-.16.46-.38l2.48-12.74h3.57c1.47,0,1.97.3,2.14.48.27.29.32.98.13,1.95l-1.97,10.13c-.03.14,0,.28.1.39.09.11.22.17.36.17h5.03c.23,0,.42-.16.46-.38l2.07-10.66c.45-2.33.09-4.06-1.09-5.14Z"/>
          <path class="cls-1" d="m77.76,38.68c-1.41-1.62-3.66-2.43-6.67-2.43h-9.59c-.23,0-.42.16-.46.38l-4.45,22.91c-.03.14,0,.28.1.39.09.11.22.17.36.17h4.99c.23,0,.42-.16.46-.38l1.11-5.71h3.89c1.93,0,3.54-.21,4.8-.62,1.28-.42,2.45-1.12,3.49-2.09.87-.8,1.58-1.69,2.12-2.66.54-.97.93-2.05,1.15-3.21.55-2.85.12-5.12-1.3-6.75Zm-4.78,6.22c-.32,1.65-.93,2.83-1.82,3.51-.9.69-2.31,1.04-4.21,1.04h-2.46l1.68-8.64h3.03c1.75,0,2.91.3,3.44.89.52.58.64,1.66.34,3.2Z"/>
        </g>
      </g>
      <path class="cls-2" d="m47.12,94.25C21.14,94.25,0,73.11,0,47.12S21.14,0,47.12,0s47.12,21.14,47.12,47.12-21.14,47.12-47.12,47.12Zm0-89.25C23.9,5,5,23.9,5,47.12s18.9,42.12,42.12,42.12,42.12-18.9,42.12-42.12S70.35,5,47.12,5Z"/>
      <path class="cls-1" d="m47.12,0v5c23.23,0,42.12,18.9,42.12,42.12s-18.9,42.12-42.12,42.12c-11.61,0-22.15-4.72-29.77-12.35l-3.53,3.53c8.53,8.53,20.31,13.82,33.31,13.82,25.98,0,47.12-21.14,47.12-47.12S73.11,0,47.12,0Z"/>
    </g>
  </g>
</svg>