<?xml version="1.0" encoding="UTF-8"?>
<svg id="_レイヤー_2" data-name="レイヤー 2" xmlns="http://www.w3.org/2000/svg" viewBox="0 0 94.25 94.25">
  <defs>
    <style>
      .cls-1 {
        opacity: .4;
      }

      .cls-1, .cls-2 {
        fill: #f26868;
        stroke-width: 0px;
      }
    </style>
  </defs>
  <g id="Layer_1" data-name="Layer 1">
    <g>
      <path class="cls-2" d="m75.95,32.42c.02.08.03.16.03.23v12.31c0,.32-.17.62-.45.78l-10.33,5.95v11.79c0,.32-.17.62-.45.78l-21.57,12.42s-.1.05-.16.07c-.02,0-.04.02-.06.02-.15.04-.31.04-.46,0-.02,0-.05-.02-.07-.03-.05-.02-.1-.03-.15-.06l-21.57-12.42c-.28-.16-.45-.46-.45-.78V26.55c0-.08.01-.16.03-.24,0-.03.02-.05.03-.08.02-.05.03-.1.06-.14.02-.03.04-.05.06-.08.03-.04.05-.07.08-.1.03-.03.06-.04.09-.07.03-.03.06-.06.1-.08h0l10.78-6.21c.28-.16.62-.16.9,0l10.78,6.21h0s.07.05.1.08c.03.02.06.04.09.07.03.03.05.07.08.11.02.03.04.05.06.08.03.04.04.09.06.14,0,.03.02.05.03.08.02.08.03.16.03.23v23.07l8.99-5.17v-11.79c0-.08.01-.16.03-.23,0-.03.02-.05.03-.08.02-.05.03-.1.06-.14.02-.03.04-.05.06-.08.03-.04.05-.07.08-.1.03-.03.06-.04.09-.07.03-.03.06-.06.1-.08h0l10.78-6.21c.28-.16.62-.16.9,0l10.78,6.21s.07.05.1.08c.03.02.06.04.09.07.03.03.05.07.08.11.02.03.04.05.06.08.03.04.04.09.06.14.01.03.02.05.03.08h0Zm-1.77,12.03v-10.24l-3.77,2.17-5.21,3v10.24l8.99-5.17h0Zm-10.78,18.52v-10.24l-5.13,2.93-14.64,8.36v10.34l19.77-11.38ZM22.06,28.11v34.86l19.77,11.38v-10.34l-10.33-5.85h0s0,0,0,0c-.03-.02-.06-.05-.1-.07-.03-.02-.06-.04-.09-.07h0s-.05-.07-.07-.1c-.02-.03-.05-.06-.07-.09h0s-.03-.08-.05-.12c-.01-.03-.03-.07-.04-.1h0s-.01-.09-.02-.13c0-.03-.01-.07-.01-.1v-24.11l-5.21-3-3.77-2.17h0Zm9.89-6.73l-8.98,5.17,8.98,5.17,8.98-5.17-8.98-5.17h0Zm4.67,32.28l5.21-3v-22.55l-3.77,2.17-5.21,3v22.55l3.77-2.17Zm27.68-26.17l-8.98,5.17,8.98,5.17,8.98-5.17-8.98-5.17Zm-.9,11.9l-5.21-3-3.77-2.17v10.24l5.21,3,3.77,2.17v-10.24Zm-20.67,23.07l13.18-7.52,6.59-3.76-8.98-5.17-10.34,5.95-9.42,5.42,8.97,5.08Z"/>
      <path class="cls-1" d="m47.12,94.25C21.14,94.25,0,73.11,0,47.12S21.14,0,47.12,0s47.12,21.14,47.12,47.12-21.14,47.12-47.12,47.12Zm0-89.25C23.9,5,5,23.9,5,47.12s18.9,42.12,42.12,42.12,42.12-18.9,42.12-42.12S70.35,5,47.12,5Z"/>
      <path class="cls-2" d="m47.12,94.25v-5c23.23,0,42.12-18.9,42.12-42.12S70.35,5,47.12,5V0c25.98,0,47.12,21.14,47.12,47.12s-21.14,47.12-47.12,47.12Z"/>
    </g>
  </g>
</svg>