<?xml version="1.0" encoding="UTF-8"?>
<svg id="_レイヤー_2" data-name="レイヤー 2" xmlns="http://www.w3.org/2000/svg" viewBox="0 0 621.16 414.63">
  <defs>
    <style>
      .cls-1 {
        fill: #999;
      }

      .cls-1, .cls-2, .cls-3, .cls-4, .cls-5, .cls-6, .cls-7, .cls-8, .cls-9 {
        stroke-width: 0px;
      }

      .cls-2 {
        fill: #4d4d4d;
      }

      .cls-3 {
        fill: #f2daa9;
      }

      .cls-4 {
        fill: #aaf2aa;
      }

      .cls-5 {
        fill: gray;
      }

      .cls-6 {
        fill: #ccc;
      }

      .cls-7 {
        fill: #d9e1e6;
      }

      .cls-8 {
        fill: #f2aaaa;
      }

      .cls-9 {
        fill: #f2f2f2;
      }
    </style>
  </defs>
  <g id="Layer_1" data-name="Layer 1">
    <g>
      <path class="cls-7" d="m621.16,221.6c0,114.5-124.76,193.03-303.87,193.03S0,345.51,0,231.01,163.27,0,342.39,0s278.77,107.1,278.77,221.6Z"/>
      <g>
        <path class="cls-2" d="m187.1,131.82v-5.48h-5.53c-.22-.74-.53-1.44-.91-2.09l4.01-4.01-3.88-3.88-4.07,4.07c-.62-.33-1.28-.6-1.97-.79v-5.88h-5.48v5.88c-.66.19-1.3.44-1.9.76l-4.21-4.21-3.88,3.88,4.13,4.13c-.35.6-.64,1.24-.87,1.91h-5.86v5.48h5.65c.18.74.44,1.44.77,2.11l-4,4,3.88,3.88,3.85-3.85c.68.42,1.41.76,2.19,1.01v5.44h5.48v-5.31c.82-.21,1.59-.51,2.31-.91l3.79,3.79,3.88-3.88-3.78-3.78c.39-.7.7-1.46.92-2.25h5.47Zm-15.21.99c-2.13,0-3.86-1.73-3.86-3.86s1.73-3.86,3.86-3.86,3.86,1.73,3.86,3.86-1.73,3.86-3.86,3.86Z"/>
        <g>
          <path class="cls-9" d="m253.5,113.75h253.49c8.28,0,15,6.72,15,15v147.38H238.5v-147.38c0-8.28,6.72-15,15-15Z"/>
          <path class="cls-2" d="m509.48,126.26v137.36H251.01V126.26h258.47m2.08-12.51H248.93c-5.76,0-10.42,4.67-10.42,10.42v151.96h283.49V124.17c0-5.76-4.67-10.42-10.42-10.42h0Z"/>
        </g>
        <path class="cls-1" d="m506.99,310.3h-253.49c-8.28,0-15-6.72-15-15v-19.17h283.49v19.17c0,8.28-6.72,15-15,15Z"/>
        <polygon class="cls-1" points="406.33 341.18 354.17 341.18 357.99 310.3 402.51 310.3 406.33 341.18"/>
        <rect class="cls-1" x="341.06" y="339.21" width="78.38" height="7.75"/>
        <circle class="cls-2" cx="380.25" cy="293.35" r="8.15"/>
        <g>
          <rect class="cls-9" x="143.14" y="236.49" width="63.11" height="110.46" rx="10" ry="10"/>
          <path class="cls-2" d="m199.3,239.97c1.92,0,3.47,1.56,3.47,3.47v96.56c0,1.92-1.56,3.47-3.47,3.47h-49.21c-1.92,0-3.47-1.56-3.47-3.47v-96.56c0-1.92,1.56-3.47,3.47-3.47h49.21m0-3.47h-49.21c-3.84,0-6.95,3.11-6.95,6.95v96.56c0,3.84,3.11,6.95,6.95,6.95h49.21c3.84,0,6.95-3.11,6.95-6.95v-96.56c0-3.84-3.11-6.95-6.95-6.95h0Z"/>
        </g>
        <path class="cls-2" d="m185.12,244.06h-20.85c-1.66,0-3-1.34-3-3v-3.35h26.85v3.35c0,1.66-1.34,3-3,3Z"/>
        <rect class="cls-2" x="275.43" y="154.06" width="133.9" height="88.1" rx="3" ry="3"/>
        <rect class="cls-6" x="296.32" y="166.04" width="20.97" height="1.39"/>
        <rect class="cls-6" x="296.32" y="173.06" width="36.81" height="1.39"/>
        <rect class="cls-6" x="296.32" y="194.12" width="36.81" height="1.39"/>
        <rect class="cls-6" x="296.32" y="180.08" width="53.31" height="1.39"/>
        <rect class="cls-5" x="161.88" y="309.68" width="25.63" height="4.17"/>
        <rect class="cls-5" x="154.97" y="318.71" width="39.45" height="1.39"/>
        <rect class="cls-5" x="160.37" y="323.11" width="28.64" height="1.39"/>
        <rect class="cls-5" x="154.97" y="327.52" width="39.45" height="1.39"/>
        <rect class="cls-5" x="156.46" y="331.92" width="36.46" height="1.39"/>
        <rect class="cls-6" x="296.32" y="187.1" width="26.65" height="1.39"/>
        <g>
          <path class="cls-6" d="m286.53,172.02h-6.28v-6.28h6.28v6.28Zm-5.58-.69h4.89v-4.89h-4.89v4.89Z"/>
          <path class="cls-6" d="m286.53,181.63h-6.28v-6.28h6.28v6.28Zm-5.58-.69h4.89v-4.89h-4.89v4.89Z"/>
          <path class="cls-6" d="m286.53,191.24h-6.28v-6.28h6.28v6.28Zm-5.58-.69h4.89v-4.89h-4.89v4.89Z"/>
          <path class="cls-6" d="m286.53,200.85h-6.28v-6.28h6.28v6.28Zm-5.58-.69h4.89v-4.89h-4.89v4.89Z"/>
          <path class="cls-6" d="m286.53,210.45h-6.28v-6.28h6.28v6.28Zm-5.58-.69h4.89v-4.89h-4.89v4.89Z"/>
        </g>
        <circle class="cls-8" cx="281.54" cy="158.48" r="1.57"/>
        <circle class="cls-3" cx="287.57" cy="158.48" r="1.57"/>
        <circle class="cls-4" cx="293.61" cy="158.48" r="1.57"/>
        <rect class="cls-8" x="150.83" y="249.62" width="47.73" height="27.62"/>
        <rect class="cls-3" x="150.83" y="282.58" width="14.26" height="18.08"/>
        <rect class="cls-3" x="184.3" y="282.58" width="14.26" height="18.08"/>
        <rect class="cls-3" x="167.56" y="282.58" width="14.26" height="18.08"/>
        <path class="cls-2" d="m252.2,87.29v-9.94h-10.03c-.4-1.34-.96-2.61-1.64-3.8l7.27-7.27-7.03-7.03-7.37,7.37c-1.12-.6-2.32-1.08-3.57-1.44v-10.65h-9.94v10.65c-1.2.34-2.36.8-3.44,1.38l-7.63-7.63-7.03,7.03,7.48,7.48c-.64,1.09-1.17,2.24-1.57,3.46h-10.63v9.94h10.25c.33,1.34.8,2.61,1.4,3.82l-7.25,7.25,7.03,7.03,6.97-6.97c1.24.75,2.56,1.38,3.97,1.82v9.87h9.94v-9.63c1.48-.38,2.89-.93,4.19-1.65l6.88,6.88,7.03-7.03-6.86-6.86c.71-1.27,1.27-2.64,1.66-4.08h9.91Zm-27.56,6.36c-6.38,0-11.56-5.17-11.56-11.56s5.17-11.56,11.56-11.56,11.56,5.17,11.56,11.56-5.17,11.56-11.56,11.56Z"/>
      </g>
    </g>
  </g>
</svg>