<?xml version="1.0" encoding="UTF-8"?>
<svg id="_レイヤー_2" data-name="レイヤー 2" xmlns="http://www.w3.org/2000/svg" viewBox="0 0 20.32 20.01">
  <defs>
    <style>
      .cls-1 {
        fill: #fff;
        stroke-width: 0px;
      }
    </style>
  </defs>
  <g id="Layer_1" data-name="Layer 1">
    <path class="cls-1" d="m10.16,0C4.55,0,0,4.55,0,10.16c0,4.76,3.28,8.75,7.7,9.85-.05-.14-.08-.3-.08-.49v-1.74h-1.28c-.7,0-1.31-.3-1.61-.85-.33-.62-.39-1.56-1.22-2.14-.24-.19-.06-.41.22-.38.52.15.95.5,1.36,1.03.4.53.6.65,1.35.65.37,0,.92-.02,1.43-.1.28-.71.76-1.35,1.34-1.66-3.38-.35-5-2.03-5-4.32,0-.98.42-1.94,1.13-2.74-.23-.8-.53-2.42.09-3.04,1.52,0,2.44.99,2.66,1.25.76-.26,1.59-.41,2.47-.41s1.71.15,2.47.41c.22-.27,1.14-1.26,2.67-1.26.62.62.32,2.25.09,3.04.71.8,1.12,1.75,1.12,2.73,0,2.28-1.61,3.97-4.99,4.32.93.49,1.61,1.85,1.61,2.88v2.32c0,.09-.02.15-.03.23,3.96-1.39,6.8-5.15,6.8-9.58C20.32,4.55,15.77,0,10.16,0Z"/>
  </g>
</svg>