<?xml version="1.0" encoding="UTF-8"?>
<svg id="_レイヤー_2" data-name="レイヤー 2" xmlns="http://www.w3.org/2000/svg" viewBox="0 0 94.25 94.25">
  <defs>
    <style>
      .cls-1, .cls-2 {
        fill: #e68a5c;
        stroke-width: 0px;
      }

      .cls-2 {
        opacity: .4;
      }
    </style>
  </defs>
  <g id="Layer_1" data-name="Layer 1">
    <g>
      <path class="cls-1" d="m44.91,57.68h-14.13l-2.89,8.93c-.08.34-.38.57-.72.53h-7.14c-.42,0-.53-.23-.42-.68l12.23-35.22c.11-.38.23-.8.38-1.25.15-.8.23-1.63.23-2.47-.04-.19.11-.38.3-.42h9.84c.3,0,.46.11.49.3l13.87,39.13c.11.42,0,.61-.38.61h-7.94c-.27.04-.53-.15-.61-.42l-3.12-9.04Zm-11.93-7.71h9.65c-.23-.8-.53-1.75-.87-2.74-.34-1.03-.68-2.13-1.03-3.27-.38-1.18-.72-2.32-1.1-3.49s-.72-2.28-1.03-3.38c-.3-1.06-.57-2.05-.84-2.96h-.08c-.34,1.63-.76,3.27-1.29,4.9-.57,1.82-1.14,3.72-1.75,5.62-.53,1.94-1.1,3.72-1.67,5.32Zm32.44-16.22c-1.25.04-2.47-.46-3.38-1.33-.87-.95-1.33-2.2-1.29-3.49-.04-1.29.46-2.51,1.37-3.38s2.13-1.33,3.38-1.33c1.48,0,2.62.46,3.46,1.33.84.91,1.29,2.13,1.25,3.38.04,1.29-.42,2.55-1.33,3.49-.87.91-2.17,1.41-3.46,1.33h0Zm-4.25,32.97v-29.25c0-.38.15-.53.49-.53h7.52c.34,0,.49.19.49.53v29.25c0,.42-.15.61-.49.61h-7.45c-.38,0-.57-.23-.57-.61Z"/>
      <path class="cls-2" d="m47.12,94.25C21.14,94.25,0,73.11,0,47.12S21.14,0,47.12,0s47.12,21.14,47.12,47.12-21.14,47.12-47.12,47.12Zm0-89.25C23.9,5,5,23.9,5,47.12s18.9,42.12,42.12,42.12,42.12-18.9,42.12-42.12S70.35,5,47.12,5Z"/>
      <path class="cls-1" d="m47.12,94.25C21.14,94.25,0,73.11,0,47.12h5c0,23.23,18.9,42.12,42.12,42.12s42.12-18.9,42.12-42.12S70.35,5,47.12,5V0c25.98,0,47.12,21.14,47.12,47.12s-21.14,47.12-47.12,47.12Z"/>
    </g>
  </g>
</svg>