<?xml version="1.0" encoding="UTF-8"?>
<svg id="_レイヤー_2" data-name="レイヤー 2" xmlns="http://www.w3.org/2000/svg" viewBox="0 0 94.25 94.25">
  <defs>
    <style>
      .cls-1 {
        opacity: .4;
      }

      .cls-1, .cls-2 {
        fill: #6782eb;
        stroke-width: 0px;
      }
    </style>
  </defs>
  <g id="Layer_1" data-name="Layer 1">
    <g>
      <polygon class="cls-2" points="47.15 25.63 47.12 25.63 26.35 25.63 27.1 33.93 47.12 33.93 47.15 33.93 58.81 33.93 58.06 42.43 47.15 42.43 47.12 42.43 27.84 42.43 28.58 50.72 47.12 50.72 47.15 50.72 57.34 50.72 56.37 61.48 47.12 63.98 47.12 63.98 47.11 63.98 37.87 61.49 37.28 54.87 32.79 54.87 28.95 54.87 30.12 67.9 47.11 72.62 47.15 72.61 47.15 72.61 64.13 67.9 64.26 66.5 66.2 44.65 66.41 42.43 67.91 25.63 47.15 25.63"/>
      <path class="cls-1" d="m47.12,94.25C21.14,94.25,0,73.11,0,47.12S21.14,0,47.12,0s47.12,21.14,47.12,47.12-21.14,47.12-47.12,47.12Zm0-89.25C23.9,5,5,23.9,5,47.12s18.9,42.12,42.12,42.12,42.12-18.9,42.12-42.12S70.35,5,47.12,5Z"/>
      <path class="cls-2" d="m47.13,0v5c23.23,0,42.12,18.9,42.12,42.12s-18.9,42.12-42.12,42.12S5,70.35,5,47.12c0-11.61,4.72-22.15,12.35-29.77l-3.53-3.53C5.29,22.35,0,34.13,0,47.12c0,25.98,21.14,47.12,47.12,47.12s47.12-21.14,47.12-47.12S73.11,0,47.13,0Z"/>
    </g>
  </g>
</svg>