<?xml version="1.0" encoding="UTF-8"?>
<svg id="_レイヤー_2" data-name="レイヤー 2" xmlns="http://www.w3.org/2000/svg" xmlns:xlink="http://www.w3.org/1999/xlink" viewBox="0 0 300 300">
  <defs>
    <style>
      .cls-1 {
        fill: #777bb3;
      }

      .cls-1, .cls-2, .cls-3, .cls-4, .cls-5, .cls-6 {
        stroke-width: 0px;
      }

      .cls-2 {
        fill: url(#_名称未設定グラデーション_2);
      }

      .cls-3 {
        fill: #000;
      }

      .cls-7 {
        clip-path: url(#clippath-2);
      }

      .cls-4 {
        fill: #b3b3b3;
      }

      .cls-5 {
        fill: none;
      }

      .cls-8 {
        clip-path: url(#clippath-1);
      }

      .cls-9 {
        clip-path: url(#clippath);
      }

      .cls-6 {
        fill: #fff;
      }
    </style>
    <clipPath id="clippath">
      <ellipse class="cls-5" cx="150" cy="150" rx="118.48" ry="62.32"/>
    </clipPath>
    <radialGradient id="_名称未設定グラデーション_2" data-name="名称未設定グラデーション 2" cx="-506.28" cy="488.43" fx="-506.28" fy="488.43" r=".34" gradientTransform="translate(229863.13 221771.7) scale(453.82 -453.82)" gradientUnits="userSpaceOnUse">
      <stop offset="0" stop-color="#aeb2d5"/>
      <stop offset=".3" stop-color="#aeb2d5"/>
      <stop offset=".75" stop-color="#484c89"/>
      <stop offset="1" stop-color="#484c89"/>
    </radialGradient>
    <clipPath id="clippath-1">
      <rect class="cls-5" x="26.59" y="80.58" width="246.82" height="138.84"/>
    </clipPath>
    <clipPath id="clippath-2">
      <rect class="cls-5" x="26.59" y="80.58" width="246.82" height="138.84"/>
    </clipPath>
  </defs>
  <g id="_レイヤー_1-2" data-name="レイヤー 1">
    <g>
      <circle class="cls-4" cx="150" cy="150" r="150"/>
      <g id="g3438">
        <g id="g3440">
          <g class="cls-9">
            <g id="g3442">
              <g id="g3448">
                <g id="g3450">
                  <path id="path3462" class="cls-2" d="M31.53,150c0,34.42,53.04,62.32,118.47,62.32h0c65.43,0,118.48-27.9,118.48-62.32h0c0-34.42-53.04-62.32-118.48-62.32h0c-65.43,0-118.47,27.9-118.47,62.32"/>
                </g>
              </g>
            </g>
          </g>
        </g>
        <g id="g3464">
          <g class="cls-8">
            <g id="g3466">
              <g id="g3472">
                <path id="path3474" class="cls-1" d="M150,207.7c62.88,0,113.85-25.83,113.85-57.7s-50.97-57.7-113.85-57.7-113.85,25.83-113.85,57.7,50.97,57.7,113.85,57.7"/>
              </g>
            </g>
          </g>
        </g>
        <g id="g3476">
          <g class="cls-7">
            <g id="g3478">
              <g id="g3484">
                <path id="path3486" class="cls-3" d="M95.89,157.15c5.17,0,9.03-.95,11.47-2.83,2.42-1.86,4.08-5.08,4.96-9.58.82-4.2.5-7.14-.92-8.72-1.46-1.62-4.62-2.44-9.38-2.44h-8.26l-4.58,23.57h6.72ZM68.87,186.18c-.38,0-.75-.17-.99-.47-.24-.3-.34-.69-.27-1.06l12.14-62.46c.12-.6.65-1.04,1.26-1.04h26.16c8.22,0,14.34,2.23,18.19,6.64,3.87,4.43,5.06,10.62,3.55,18.39-.62,3.17-1.67,6.11-3.15,8.75-1.47,2.64-3.42,5.08-5.79,7.25-2.84,2.65-6.04,4.58-9.53,5.71-3.43,1.12-7.83,1.68-13.09,1.68h-10.59l-3.03,15.56c-.12.6-.65,1.04-1.26,1.04h-13.61Z"/>
              </g>
              <g id="g3488">
                <path id="path3490" class="cls-6" d="M94.82,134.87h7.2c5.75,0,7.75,1.26,8.43,2.01,1.13,1.25,1.34,3.88.61,7.61-.81,4.18-2.32,7.14-4.48,8.8-2.21,1.7-5.81,2.57-10.69,2.57h-5.16l4.08-21ZM107.17,119.87h-26.16c-1.23,0-2.29.87-2.52,2.08l-12.14,62.46c-.15.75.05,1.53.54,2.13.49.59,1.22.94,1.98.94h13.61c1.23,0,2.29-.87,2.52-2.08l2.82-14.52h9.53c5.39,0,9.93-.59,13.49-1.75,3.66-1.19,7.03-3.21,10.01-5.99,2.46-2.27,4.5-4.81,6.03-7.57,1.54-2.75,2.64-5.83,3.29-9.13,1.59-8.19.3-14.74-3.84-19.48-4.1-4.7-10.55-7.08-19.16-7.08M87.62,158.44h8.28c5.49,0,9.57-1.03,12.26-3.1,2.69-2.07,4.5-5.52,5.44-10.35.9-4.64.49-7.92-1.23-9.83-1.72-1.91-5.17-2.86-10.34-2.86h-9.32l-5.08,26.14M107.17,122.44c7.87,0,13.61,2.07,17.22,6.2,3.61,4.13,4.7,9.9,3.26,17.3-.59,3.05-1.59,5.84-3.01,8.36-1.41,2.53-3.26,4.84-5.54,6.94-2.72,2.54-5.73,4.35-9.06,5.43-3.32,1.08-7.55,1.62-12.69,1.62h-11.65l-3.23,16.6h-13.61l12.14-62.46h26.16"/>
              </g>
              <g id="g3492">
                <path id="path3494" class="cls-3" d="M160.11,169.58c-.38,0-.75-.17-.99-.47-.24-.3-.34-.69-.27-1.06l5.37-27.63c.51-2.63.38-4.51-.35-5.31-.45-.49-1.81-1.3-5.83-1.3h-9.73l-6.75,34.74c-.12.6-.65,1.04-1.26,1.04h-13.5c-.38,0-.75-.17-.99-.47-.24-.3-.34-.69-.27-1.06l12.14-62.46c.12-.6.65-1.04,1.26-1.04h13.5c.38,0,.75.17.99.47.24.3.34.69.27,1.06l-2.93,15.07h10.47c7.97,0,13.38,1.41,16.53,4.3,3.21,2.95,4.21,7.67,2.98,14.02l-5.65,29.06c-.12.6-.65,1.04-1.26,1.04h-13.71Z"/>
              </g>
              <g id="g3496">
                <path id="path3498" class="cls-6" d="M152.43,103.27h-13.5c-1.23,0-2.29.87-2.52,2.08l-12.14,62.46c-.15.75.05,1.53.54,2.13s1.22.94,1.98.94h13.5c1.23,0,2.29-.87,2.52-2.08l6.55-33.7h8.67c4.01,0,4.85.86,4.89.89.24.26.56,1.47.04,4.19l-5.37,27.63c-.15.75.05,1.53.54,2.13s1.22.94,1.98.94h13.71c1.23,0,2.29-.87,2.52-2.08l5.65-29.06c1.33-6.82.19-11.94-3.37-15.21-3.4-3.12-9.09-4.64-17.4-4.64h-8.91l2.63-13.54c.15-.75-.05-1.53-.54-2.13-.49-.59-1.22-.94-1.98-.94M152.43,105.84l-3.23,16.6h12.02c7.57,0,12.79,1.32,15.66,3.96,2.87,2.64,3.73,6.92,2.58,12.83l-5.65,29.06h-13.71l5.37-27.63c.61-3.14.39-5.29-.67-6.43-1.06-1.14-3.32-1.72-6.77-1.72h-10.79l-6.95,35.78h-13.5l12.14-62.46h13.5"/>
              </g>
              <g id="g3500">
                <path id="path3502" class="cls-3" d="M202.09,157.15c5.17,0,9.03-.95,11.47-2.83,2.42-1.86,4.08-5.08,4.96-9.58.82-4.2.5-7.14-.92-8.72-1.46-1.62-4.62-2.44-9.38-2.44h-8.26l-4.58,23.57h6.72ZM175.06,186.18c-.38,0-.75-.17-.99-.47-.24-.3-.34-.69-.27-1.06l12.14-62.46c.12-.6.65-1.04,1.26-1.04h26.16c8.22,0,14.34,2.23,18.19,6.64,3.87,4.43,5.06,10.61,3.55,18.39-.62,3.17-1.67,6.11-3.15,8.75-1.47,2.64-3.42,5.08-5.79,7.25-2.84,2.65-6.04,4.58-9.53,5.71-3.43,1.12-7.83,1.68-13.09,1.68h-10.59l-3.02,15.56c-.12.6-.65,1.04-1.26,1.04h-13.61Z"/>
              </g>
              <g id="g3504">
                <path id="path3506" class="cls-6" d="M201.01,134.87h7.2c5.75,0,7.75,1.26,8.43,2.01,1.13,1.25,1.34,3.88.61,7.61-.81,4.18-2.32,7.14-4.48,8.8-2.21,1.7-5.81,2.57-10.69,2.57h-5.16l4.08-21ZM213.36,119.87h-26.16c-1.23,0-2.29.87-2.52,2.08l-12.14,62.46c-.15.75.05,1.53.54,2.13.49.59,1.22.94,1.98.94h13.61c1.23,0,2.29-.87,2.52-2.08l2.82-14.52h9.53c5.39,0,9.93-.59,13.49-1.75,3.66-1.19,7.03-3.21,10.01-5.99,2.46-2.27,4.49-4.81,6.03-7.57,1.54-2.75,2.64-5.83,3.29-9.13,1.59-8.19.3-14.74-3.84-19.48-4.1-4.7-10.55-7.08-19.16-7.08M193.81,158.44h8.28c5.49,0,9.57-1.03,12.26-3.1,2.69-2.07,4.5-5.52,5.44-10.35.9-4.64.49-7.92-1.23-9.83-1.72-1.91-5.17-2.86-10.34-2.86h-9.32l-5.08,26.14M213.36,122.44c7.87,0,13.61,2.07,17.22,6.2,3.61,4.13,4.7,9.9,3.26,17.3-.59,3.05-1.59,5.84-3.01,8.36-1.41,2.53-3.26,4.84-5.54,6.94-2.72,2.54-5.73,4.35-9.06,5.43-3.32,1.08-7.55,1.62-12.69,1.62h-11.65l-3.23,16.6h-13.61l12.14-62.46h26.16"/>
              </g>
            </g>
          </g>
        </g>
      </g>
    </g>
  </g>
</svg>