<?xml version="1.0" encoding="UTF-8"?>
<svg id="_レイヤー_2" data-name="レイヤー 2" xmlns="http://www.w3.org/2000/svg" viewBox="0 0 139.44 116.23">
  <defs>
    <style>
      .cls-1 {
        fill: #999;
        stroke-width: 0px;
      }
    </style>
  </defs>
  <g id="Layer_1" data-name="Layer 1">
    <g>
      <path class="cls-1" d="m131.99,93.7H7.45c-4.11,0-7.45-3.34-7.45-7.45V7.45C0,3.34,3.34,0,7.45,0h124.54c4.11,0,7.45,3.34,7.45,7.45v78.8c0,4.11-3.34,7.45-7.45,7.45ZM7.45,5.97c-.81,0-1.48.66-1.48,1.48v78.8c0,.81.66,1.48,1.48,1.48h124.54c.81,0,1.48-.66,1.48-1.48V7.45c0-.81-.66-1.48-1.48-1.48H7.45Z"/>
      <rect class="cls-1" x="58.48" y="90.72" width="22.47" height="20.19"/>
      <rect class="cls-1" x="37.76" y="107.86" width="63.91" height="8.36"/>
      <g>
        <path class="cls-1" d="m61.74,67.45c-9.39,0-17.03-7.64-17.03-17.03s7.64-17.03,17.03-17.03,17.03,7.64,17.03,17.03-7.64,17.03-17.03,17.03Zm0-32.26c-8.4,0-15.23,6.83-15.23,15.23s6.83,15.23,15.23,15.23,15.23-6.83,15.23-15.23-6.83-15.23-15.23-15.23Z"/>
        <path class="cls-1" d="m61.74,67.45c-4.09,0-7.17-7.32-7.17-17.03s3.08-17.03,7.17-17.03,7.17,7.32,7.17,17.03-3.08,17.03-7.17,17.03Zm0-32.26c-2.54,0-5.38,6.26-5.38,15.23s2.83,15.23,5.38,15.23,5.38-6.26,5.38-15.23-2.83-15.23-5.38-15.23Z"/>
        <rect class="cls-1" x="45.31" y="49.23" width="32.86" height="1.79"/>
        <rect class="cls-1" x="48" y="41.47" width="28.08" height="1.79"/>
        <rect class="cls-1" x="48" y="57" width="28.08" height="1.79"/>
      </g>
      <path class="cls-1" d="m16.69,16.73v60.25h90.1V16.73H16.69Zm84.62,2.64c.99,0,1.79.8,1.79,1.79s-.8,1.79-1.79,1.79-1.79-.8-1.79-1.79.8-1.79,1.79-1.79Zm-6.27,0c.99,0,1.79.8,1.79,1.79s-.8,1.79-1.79,1.79-1.79-.8-1.79-1.79.8-1.79,1.79-1.79Zm-6.27,0c.99,0,1.79.8,1.79,1.79s-.8,1.79-1.79,1.79-1.79-.8-1.79-1.79.8-1.79,1.79-1.79Zm15.04,54.63H19.67V25.86h84.13v48.12Z"/>
    </g>
  </g>
</svg>