<?xml version="1.0" encoding="UTF-8"?>
<svg id="_レイヤー_2" data-name="レイヤー 2" xmlns="http://www.w3.org/2000/svg" viewBox="0 0 134.79 112.68">
  <defs>
    <style>
      .cls-1 {
        fill: #999;
        stroke-width: 0px;
      }
    </style>
  </defs>
  <g id="Layer_1" data-name="Layer 1">
    <g>
      <g>
        <ellipse class="cls-1" cx="41.41" cy="39.66" rx="41.41" ry="10.35"/>
        <path class="cls-1" d="m82.82,44.72c-1.72,5.32-19.54,9.51-41.27,9.51C18.68,54.23.14,49.6.14,43.88h-.14v17.85-1.19s0,0,0,.01c0,5.72,18.54,10.35,41.41,10.35s41.41-4.64,41.41-10.35c0,0,0,1.19,0,1.18h0v-17.01Zm-9.39,17.43c-1.83,0-3.31-1.48-3.31-3.31s1.48-3.31,3.31-3.31,3.31,1.48,3.31,3.31-1.48,3.31-3.31,3.31Z"/>
        <path class="cls-1" d="m82.82,65.61c-1.72,5.32-19.54,9.51-41.27,9.51C18.68,75.12.14,70.49.14,64.77h-.14v17.85-1.19s0,0,0,.01c0,5.72,18.54,10.35,41.41,10.35s41.41-4.64,41.41-10.35c0,0,0,1.19,0,1.18h0v-17.01Zm-9.39,17.43c-1.83,0-3.31-1.48-3.31-3.31s1.48-3.31,3.31-3.31,3.31,1.48,3.31,3.31-1.48,3.31-3.31,3.31Z"/>
        <path class="cls-1" d="m82.82,86.5c-1.72,5.32-19.54,9.51-41.27,9.51C18.68,96.01.14,91.38.14,85.66h-.14v17.85-1.19s0,0,0,.01c0,5.72,18.54,10.35,41.41,10.35s41.41-4.64,41.41-10.35c0,0,0,1.19,0,1.18h0v-17.01Zm-9.39,17.43c-1.83,0-3.31-1.48-3.31-3.31s1.48-3.31,3.31-3.31,3.31,1.48,3.31,3.31-1.48,3.31-3.31,3.31Z"/>
      </g>
      <path class="cls-1" d="m88.8,17.13v-5.2h-5.24c-.21-.7-.5-1.36-.86-1.98l3.8-3.8-3.68-3.68-3.85,3.85c-.59-.32-1.21-.56-1.87-.75V0h-5.2v5.57c-.63.18-1.23.42-1.8.72l-3.99-3.99-3.68,3.68,3.91,3.91c-.33.57-.61,1.17-.82,1.81h-5.56v5.2h5.36c.17.7.42,1.37.73,2l-3.79,3.79,3.68,3.68,3.64-3.64c.65.39,1.34.72,2.07.95v5.16h5.2v-5.04c.77-.2,1.51-.48,2.19-.86l3.6,3.6,3.68-3.68-3.58-3.58c.37-.67.66-1.38.87-2.14h5.18Zm-14.41.94c-2.02,0-3.66-1.64-3.66-3.66s1.64-3.66,3.66-3.66,3.66,1.64,3.66,3.66-1.64,3.66-3.66,3.66Z"/>
      <path class="cls-1" d="m134.79,45.29v-8.35h-8.42c-.34-1.12-.81-2.19-1.38-3.19l6.11-6.11-5.9-5.9-6.19,6.19c-.94-.51-1.95-.91-3-1.21v-8.94h-8.35v8.94c-1.01.29-1.98.67-2.89,1.16l-6.41-6.41-5.9,5.9,6.28,6.28c-.53.91-.98,1.88-1.32,2.91h-8.93v8.35h8.61c.27,1.12.67,2.2,1.18,3.21l-6.09,6.09,5.9,5.9,5.85-5.85c1.04.63,2.15,1.16,3.33,1.53v8.29h8.35v-8.09c1.24-.32,2.42-.78,3.52-1.38l5.78,5.78,5.9-5.9-5.76-5.76c.6-1.07,1.07-2.22,1.39-3.43h8.33Zm-23.15,5.34c-5.36,0-9.71-4.35-9.71-9.71s4.35-9.71,9.71-9.71,9.71,4.35,9.71,9.71-4.35,9.71-9.71,9.71Z"/>
    </g>
  </g>
</svg>