<?xml version="1.0" encoding="UTF-8"?>
<svg id="_レイヤー_2" data-name="レイヤー 2" xmlns="http://www.w3.org/2000/svg" viewBox="0 0 140.73 106.35">
  <defs>
    <style>
      .cls-1 {
        fill: #999;
        stroke-width: 0px;
      }
    </style>
  </defs>
  <g id="Layer_1" data-name="Layer 1">
    <g>
      <path class="cls-1" d="m88.41,101.56H10.16V23.3h78.26v78.26Zm-72.28-5.97h66.31V29.27H16.13v66.31Z"/>
      <path class="cls-1" d="m91.4,64.52c-17.79,0-32.26-14.47-32.26-32.26S73.61,0,91.4,0s32.26,14.47,32.26,32.26-14.47,32.26-32.26,32.26Zm0-60.34c-15.48,0-28.08,12.6-28.08,28.08s12.6,28.08,28.08,28.08,28.08-12.6,28.08-28.08-12.6-28.08-28.08-28.08Z"/>
      <polygon class="cls-1" points="130.8 98.37 140.73 95.84 118.61 79.39 118.61 79.39 124.36 106.35 130.8 98.37"/>
      <rect class="cls-1" y="77.96" width="118.88" height="2.99"/>
    </g>
  </g>
</svg>