<?xml version="1.0" encoding="UTF-8"?>
<svg id="_レイヤー_2" data-name="レイヤー 2" xmlns="http://www.w3.org/2000/svg" viewBox="0 0 76.43 76.43">
  <defs>
    <style>
      .cls-1, .cls-2 {
        fill: #3da6f2;
        stroke-width: 0px;
      }

      .cls-2 {
        opacity: .4;
      }
    </style>
  </defs>
  <g id="Layer_1" data-name="Layer 1">
    <g>
      <path class="cls-2" d="m38.22,76.43C17.14,76.43,0,59.29,0,38.22S17.14,0,38.22,0s38.22,17.14,38.22,38.22-17.14,38.22-38.22,38.22Zm0-72.38C19.38,4.05,4.05,19.38,4.05,38.22s15.33,34.16,34.16,34.16,34.16-15.33,34.16-34.16S57.05,4.05,38.22,4.05Z"/>
      <path class="cls-1" d="m38.22,76.43v-4.05c18.84,0,34.16-15.33,34.16-34.16S57.05,4.05,38.22,4.05V0c21.07,0,38.22,17.14,38.22,38.22s-17.14,38.22-38.22,38.22Z"/>
      <g>
        <g>
          <path class="cls-1" d="m37.16,25.38c-1.14-1.11-2.52-1.95-4.03-2.46-1.68-.63-3.73-.93-6.19-.93-.9,0-1.8,0-2.73.03s-1.8.03-2.61.06c-.81.03-1.56.03-2.28.06-.69.03-1.17.03-1.68.03-.21,0-.3.12-.3.33v30.93c0,.27.12.39.36.39h5.83c.21-.03.36-.21.33-.42v-9.65c.57,0,.99,0,1.29.03.3.03.78.03,1.5.03,2.46,0,4.72-.27,6.76-1.02,1.95-.72,3.64-1.98,4.84-3.67s1.8-3.82,1.8-6.4c0-1.35-.24-2.64-.69-3.91-.48-1.29-1.23-2.46-2.19-3.43Zm-4.6,10.61c-.66.75-1.5,1.32-2.46,1.59-1.11.36-2.28.54-3.46.54h-1.59c-.36,0-.75-.03-1.17-.06v-10.1c.21-.03.63-.06,1.23-.03.57-.03,1.26-.03,2.04-.03,1.23-.03,2.43.15,3.55.6.87.33,1.59.93,2.1,1.71.48.81.72,1.74.69,2.67,0,1.32-.3,2.34-.93,3.1Z"/>
          <path class="cls-1" d="m60.03,43.72c-.57-1.02-1.38-1.86-2.37-2.49-1.44-.9-3.01-1.65-4.63-2.19-.72-.3-1.44-.63-2.13-.99-.39-.21-.75-.48-1.02-.81-.18-.24-.3-.51-.3-.78s.09-.57.24-.81c.21-.3.54-.51.93-.6.57-.15,1.2-.24,1.8-.21,1.14,0,2.25.15,3.37.39,1.02.21,1.98.54,2.89,1.02.12.06.27.06.54,0,.09-.06.15-.18.15-.3v-4.9c0-.12-.03-.24-.06-.36-.06-.12-.18-.24-.3-.27-.81-.33-1.68-.57-2.58-.69-1.23-.18-2.49-.27-3.73-.27-2.13,0-3.91.33-5.32,1.05-1.29.6-2.4,1.56-3.16,2.77-.66,1.11-1.02,2.34-1.02,3.64-.03,1.05.21,2.1.69,3.07.57,1.02,1.35,1.89,2.28,2.55,1.32.9,2.74,1.62,4.27,2.16,1.47.57,2.46,1.02,2.95,1.41.48.39.72.78.72,1.2,0,.54-.33,1.05-.81,1.26-.54.27-1.35.42-2.49.42-1.2,0-2.4-.15-3.55-.45-1.32-.3-2.55-.78-3.73-1.47-.09-.06-.18-.09-.27-.03-.09.06-.12.18-.12.27v5.23c-.03.24.12.45.33.57.96.45,2.01.78,3.07.96,1.35.27,2.71.39,4.09.39,2.16,0,3.97-.33,5.44-.96,1.35-.54,2.52-1.47,3.37-2.67.78-1.17,1.2-2.58,1.17-4,.03-1.08-.21-2.13-.69-3.1Z"/>
        </g>
        <g>
          <path class="cls-1" d="m37.16,25.38c-1.14-1.11-2.52-1.95-4.03-2.46-1.68-.63-3.73-.93-6.19-.93-.9,0-1.8,0-2.73.03s-1.8.03-2.61.06c-.81.03-1.56.03-2.28.06-.69.03-1.17.03-1.68.03-.21,0-.3.12-.3.33v30.93c0,.27.12.39.36.39h5.83c.21-.03.36-.21.33-.42v-9.65c.57,0,.99,0,1.29.03.3.03.78.03,1.5.03,2.46,0,4.72-.27,6.76-1.02,1.95-.72,3.64-1.98,4.84-3.67s1.8-3.82,1.8-6.4c0-1.35-.24-2.64-.69-3.91-.48-1.29-1.23-2.46-2.19-3.43Zm-4.6,10.61c-.66.75-1.5,1.32-2.46,1.59-1.11.36-2.28.54-3.46.54h-1.59c-.36,0-.75-.03-1.17-.06v-10.1c.21-.03.63-.06,1.23-.03.57-.03,1.26-.03,2.04-.03,1.23-.03,2.43.15,3.55.6.87.33,1.59.93,2.1,1.71.48.81.72,1.74.69,2.67,0,1.32-.3,2.34-.93,3.1Z"/>
          <path class="cls-1" d="m60.03,43.72c-.57-1.02-1.38-1.86-2.37-2.49-1.44-.9-3.01-1.65-4.63-2.19-.72-.3-1.44-.63-2.13-.99-.39-.21-.75-.48-1.02-.81-.18-.24-.3-.51-.3-.78s.09-.57.24-.81c.21-.3.54-.51.93-.6.57-.15,1.2-.24,1.8-.21,1.14,0,2.25.15,3.37.39,1.02.21,1.98.54,2.89,1.02.12.06.27.06.54,0,.09-.06.15-.18.15-.3v-4.9c0-.12-.03-.24-.06-.36-.06-.12-.18-.24-.3-.27-.81-.33-1.68-.57-2.58-.69-1.23-.18-2.49-.27-3.73-.27-2.13,0-3.91.33-5.32,1.05-1.29.6-2.4,1.56-3.16,2.77-.66,1.11-1.02,2.34-1.02,3.64-.03,1.05.21,2.1.69,3.07.57,1.02,1.35,1.89,2.28,2.55,1.32.9,2.74,1.62,4.27,2.16,1.47.57,2.46,1.02,2.95,1.41.48.39.72.78.72,1.2,0,.54-.33,1.05-.81,1.26-.54.27-1.35.42-2.49.42-1.2,0-2.4-.15-3.55-.45-1.32-.3-2.55-.78-3.73-1.47-.09-.06-.18-.09-.27-.03-.09.06-.12.18-.12.27v5.23c-.03.24.12.45.33.57.96.45,2.01.78,3.07.96,1.35.27,2.71.39,4.09.39,2.16,0,3.97-.33,5.44-.96,1.35-.54,2.52-1.47,3.37-2.67.78-1.17,1.2-2.58,1.17-4,.03-1.08-.21-2.13-.69-3.1Z"/>
        </g>
      </g>
    </g>
  </g>
</svg>